{"title":"Student of the Year 2012 DVDRip x264 AAC - ViZNU [P2PDL]","uid":7967340,"size":741484452,"categoryP":"video","categoryS":"movies","magnet":"?xt=urn:btih:49f6989d9e18ade5fc841c4fde9cbbdb2fb7349e&amp;dn=Student+of+the+Year+2012+DVDRip+x264+AAC+-+ViZNU+%5BP2PDL%5D&amp;tr=udp%3A%2F%2Ftracker.openbittorrent.com%3A80&amp;tr=udp%3A%2F%2Fopen.demonii.com%3A1337&amp;tr=udp%3A%2F%2Ftracker.coppersurfer.tk%3A6969&amp;tr=udp%3A%2F%2Fexodus.desync.com%3A6969","seeders":0,"leechers":1,"uploader":"ValidusVyto","files":-1,"time":1356716503,"description":"Student of the Year 2012 DVDRip x264 AAC - ViZNU [P2PDL]\n &lt;a href=&quot;\nhttp://www.imdb.com/title/tt2172071/&quot; rel=&quot;nofollow&quot; target=&quot;_NEW&quot;&gt;\nhttp://www.imdb.com/title/tt2172071/&lt;/a&gt;\nDean Yoginder Vashisht (Rishi Kapoor), retired, has fallen gravely ill. Several students from his\nfinal year at St. Theresa's College rush to his side. In flashbacks, they all recall the events that\nnone of them have gotten over yet, including the dean, and how the &quot;Student of the Year&quot; competition\nshaped who they were, how they related, and what they've become.\n\nGeneral\nFormat                         : MPEG-4\nFormat profile                 : Base Media\nCodec ID                       : isom\nFile size                      : 698 MiB\nDuration                       : 2h 26mn\nOverall bit rate mode          : Variable\nOverall bit rate               : 668 Kbps\nSource                         : NTSC - DVD5 - [DDR](Thanks)\n\nVideo\nID                             : 1\nFormat                         : AVC\nFormat/Info                    : Advanced Video Codec\nCodec ID/Info                  : Advanced Video Coding\nDuration                       : 2h 26mn\nBit rate                       : 609 Kbps\nMaximum bit rate               : 3 976 Kbps\nWidth                          : 720 pixels\nHeight                         : 304 pixels\nDisplay aspect ratio           : 2.35:1\nFrame rate mode                : Constant\nFrame rate                     : 23.976 fps\nStream size                    : 636 MiB (91%)\nWriting library                : x264 core 129 r2230 1cffe9f\n\nAudio\nID                             : 2\nFormat                         : AAC\nFormat/Info                    : Advanced Audio Codec\nCodec ID                       : 40\nDuration                       : 2h 26mn\nBit rate mode                  : Variable\nBit rate                       : 56.0 Kbps\nMaximum bit rate               : 66.7 Kbps\nChannel(s)                     : 2 channels\nChannel positions              : Front: L R\nSampling rate                  : 44.1 KHz / 22.05 KHz\nStream size                    : 58.5 MiB (8%)\nLanguage                       : Hindi\n\nSubtitle                       : Yes(English)\n\n\nScreens:\n &lt;a href=&quot;\nhttp://www.shotpix.com/images/28072827466843069928.png&quot; rel=&quot;nofollow&quot; target=&quot;_NEW&quot;&gt;\nhttp://www.shotpix.com/images/28072827466843069928.png&lt;/a&gt; &lt;a href=&quot;\nhttp://www.shotpix.com/images/99239469059559174326.png&quot; rel=&quot;nofollow&quot; target=&quot;_NEW&quot;&gt;\nhttp://www.shotpix.com/images/99239469059559174326.png&lt;/a&gt; &lt;a href=&quot;\nhttp://www.shotpix.com/images/51008264238449185878.png&quot; rel=&quot;nofollow&quot; target=&quot;_NEW&quot;&gt;\nhttp://www.shotpix.com/images/51008264238449185878.png&lt;/a&gt; &lt;a href=&quot;\nhttp://www.shotpix.com/images/55157307110850821663.png&quot; rel=&quot;nofollow&quot; target=&quot;_NEW&quot;&gt;\nhttp://www.shotpix.com/images/55157307110850821663.png&lt;/a&gt; &lt;a href=&quot;\nhttp://www.shotpix.com/images/40441274432745331698.png&quot; rel=&quot;nofollow&quot; target=&quot;_NEW&quot;&gt;\nhttp://www.shotpix.com/images/40441274432745331698.png&lt;/a&gt;\n\n----------------------------------------------------------------------------------------------------\n\n\nRecommend to you to use latest version of VLC player. Install K-Lite Codec Pack or shark007 codecs\nin case of any kind of problem in playback (For non-VLC Media Player users). Alternatively, install\nCore AVC codecs, the fastest decoder that there is coupled with Community Center Codec Pack and play\non Windows Media Player Classic. Check sample to be sure.\nEnjoy!\n\nGreets to: Vitamin_X, a2zRG, staff members at ExtraTorrent, TPB,KAT, 1337x, PublicHD, Ahashare,\nBTScene, SilverTorrent, TorrentMafia, P2PDL, and all others.\n\nEncoder Notes: Looking For Early Access To Anything You Can Provide DVDScr, R5, DVDR, BluRay, Direct\nAudio, Early Music Releases, Seedboxes, Dedicated Servers anything u can provide, Advance / Promo CDs/\nDVDs. If You Got anything to offer contact me at &quot;&lt;a class=&quot;__cf_email__&quot; href=&quot;/cdn-cgi/l/email-protection&quot; data-cfemail=&quot;deaeacb99eb6abadb6f0bdb1b3&quot;&gt;[email&amp;#160;protected]&lt;/a&gt;&lt;script cf-hash='f9e31' type=&quot;text/javascript&quot;&gt;\n/* &lt;![CDATA[ */!function(){try{var t=&quot;currentScript&quot;in document?document.currentScript:function(){for(var t=document.getElementsByTagName(&quot;script&quot;),e=t.length;e--;)if(t[e].getAttribute(&quot;cf-hash&quot;))return t[e]}();if(t&amp;&amp;t.previousSibling){var e,r,n,i,c=t.previousSibling,a=c.getAttribute(&quot;data-cfemail&quot;);if(a){for(e=&quot;&quot;,r=parseInt(a.substr(0,2),16),n=2;a.length-n;n+=2)i=parseInt(a.substr(n,2),16)^r,e+=String.fromCharCode(i);e=document.createTextNode(e),c.parentNode.replaceChild(e,c)}}}catch(u){}}();/* ]]&gt; */&lt;/script&gt;&quot;.\n\nFacebook Fan Page: www . facebook . com / p2pdl","torrent":{"xt":"urn:btih:49f6989d9e18ade5fc841c4fde9cbbdb2fb7349e","amp;dn":"Student+of+the+Year+2012+DVDRip+x264+AAC+-+ViZNU+%5BP2PDL%5D","amp;tr":["udp%3A%2F%2Ftracker.openbittorrent.com%3A80","udp%3A%2F%2Fopen.demonii.com%3A1337","udp%3A%2F%2Ftracker.coppersurfer.tk%3A6969","udp%3A%2F%2Fexodus.desync.com%3A6969"],"infoHash":"49f6989d9e18ade5fc841c4fde9cbbdb2fb7349e","infoHashBuffer":{"type":"Buffer","data":[73,246,152,157,158,24,173,229,252,132,28,79,222,156,187,219,47,183,52,158]},"announce":[],"urlList":[]}}